<?xml version="1.0" encoding="utf-8" ?>
<svg baseProfile="full" height="200mm" version="1.1" viewBox="0,0,200,200" width="200mm" xmlns="http://www.w3.org/2000/svg" xmlns:ev="http://www.w3.org/2001/xml-events" xmlns:xlink="http://www.w3.org/1999/xlink"><defs /><rect fill="#1a1a1a" height="200" width="200" x="0" y="0" /><text alignment-baseline="middle" fill="#e1ed5e" style="dominant-baseline: central; font-size:9.0px; font-family:Arial;" text-anchor="middle" x="100.0" y="100.0">2022</text><line stroke="#e1ed5e" stroke-width="0.3" x1="100.0" x2="100.0" y1="15.0" y2="10.0" /><path d="M 100.0 14.0 a86.0,86.0 0 0,1 42.46469731375804,11.215312516191453" fill="none" id="id25" stroke="none" /><text fill="#e1ed5e" style="font-size:6.75px; font-family:Arial;" text-anchor="middle"><textPath startOffset="22.20632615414155" xlink:href="#id25">January</textPath></text><line stroke="#e1ed5e" stroke-width="0.3" x1="143.23703022742887" x2="145.7803849466894" y1="26.818313649435467" y2="22.513508569990506" /><path d="M 143.74570117128098 25.957352633546478 a86.0,86.0 0 0,1 28.547481713284135,27.462654790039114" fill="none" id="id26" stroke="none" /><text fill="#e1ed5e" style="font-size:6.75px; font-family:Arial;" text-anchor="middle"><textPath startOffset="19.985693538727396" xlink:href="#id26">February</textPath></text><line stroke="#e1ed5e" stroke-width="0.3" x1="172.23445277983987" x2="176.4835382374775" y1="55.19839476539836" y2="52.563006222186495" /><path d="M 173.08426987136738 54.67131705675599 a86.0,86.0 0 0,1 12.851231095245387,41.99856678651699" fill="none" id="id27" stroke="none" /><text fill="#e1ed5e" style="font-size:6.75px; font-family:Arial;" text-anchor="middle"><textPath startOffset="22.20632615414155" xlink:href="#id27">March</textPath></text><line stroke="#e1ed5e" stroke-width="0.3" x1="184.98032266829074" x2="189.97916517819016" y1="98.17113171792111" y2="98.06355123074" /><path d="M 185.9800911702706 98.14961562048488 a86.0,86.0 0 0,1 -9.607161424134198,41.387399972396054" fill="none" id="id28" stroke="none" /><text fill="#e1ed5e" style="font-size:6.75px; font-family:Arial;" text-anchor="middle"><textPath startOffset="21.466115282336823" xlink:href="#id28">April</textPath></text><path d="M 119.54520255179757 107.68017299344265 l 50.88916190743484 19.996598444279932 a75.67696726211958,75.67696726211958 0 0,0 -0.4868457351448215,1.2083111887013047 l -50.537413558032625 -20.869609000824052" fill="#3effb7" stroke="none" /><path d="M 119.41010516605496 108.01547362559984 l 53.723307638219744 22.185235565194937 a79.12382007984326,79.12382007984326 0 0,0 -0.5306910677410575,1.2543969205327121 l -53.33346558928638 -23.106707011393812" fill="#44ffea" stroke="none" /><path d="M 119.26925614724726 108.34839909993367 l 42.4151177333088 18.376336273827622 a67.22479796796563,67.22479796796563 0 0,0 -0.46916159377830347,1.0578355389265348 l -42.09251505479922 -19.103720149246843" fill="#31ff2f" stroke="none" /><path d="M 118.97047184881838 109.00673069616215 l 56.911415546455125 27.02019208848646 a84.0,84.0 0 0,0 -0.6313869735411521,1.3008441761388982 l -56.437875316299255 -27.995825220590632" fill="#4dd2ff" stroke="none" /><line stroke="#e1ed5e" stroke-width="0.3" x1="174.80103733775053" x2="179.2010983576182" y1="140.37084112569926" y2="142.7455964860345" /><path d="M 175.68104954172406 140.8457921977663 a86.0,86.0 0 0,1 -30.038265399797805,32.042727171017184" fill="none" id="id29" stroke="none" /><text fill="#e1ed5e" style="font-size:6.75px; font-family:Arial;" text-anchor="middle"><textPath startOffset="22.206326154141568" xlink:href="#id29">May</textPath></text><path d="M 117.75023020441432 111.22182372390056 l 39.30743705154287 24.85044557456124 a67.503970290882,67.503970290882 0 0,0 -0.6293785278902274,0.9768094519496588 l -38.87385366027559 -25.523376626432352" fill="#30ff32" stroke="none" /><path d="M 117.55443506779139 111.5257021239791 l 44.04173593226309 28.91644917184319 a73.68619873017016,73.68619873017016 0 0,0 -0.7052712913739367,1.0542848881386229 l -43.53746153547843 -29.67027097418762" fill="#3bff98" stroke="none" /><path d="M 115.07121518719521 114.62390073753431 l 29.04101914712893 28.17908019024733 a61.465310495192035,61.465310495192035 0 0,0 -0.7433186587679237,0.7529778769199129 l -28.551659863305474 -28.674798561147906" fill="#85ff25" stroke="none" /><line stroke="#e1ed5e" stroke-width="0.3" x1="143.8653032363475" x2="146.44561519142675" y1="172.8068346515853" y2="177.08958963109032" /><path d="M 144.38136562736335 173.6633856474863 a86.0,86.0 0 0,1 -40.68145358897372,12.25698825130547" fill="none" id="id30" stroke="none" /><text fill="#e1ed5e" style="font-size:6.75px; font-family:Arial;" text-anchor="middle"><textPath startOffset="21.466115282336833" xlink:href="#id30">June</textPath></text><path d="M 110.8373102113329 117.98757091392108 l 22.0388046849764 36.57960826059179 a63.70569812613878,63.70569812613878 0 0,0 -0.9441552407343514,0.5578235583075145 l -21.40588157321367 -36.953550391193055" fill="#63ff29" stroke="none" /><path d="M 104.13013068566511 120.58985236759428 l 8.209162710330691 40.92496367098601 a62.740184521348354,62.740184521348354 0 0,0 -1.0607046368012272,0.20328656814126744 l -7.50349045895776 -41.060207437475746" fill="#72ff27" stroke="none" /><path d="M 101.62511606390274 120.93702456842531 l 3.368833263050696 43.40203531434813 a64.53258213088398,64.53258213088398 0 0,0 -1.1082310599756642,0.07643010239208946 l -2.6212394422961016 -43.453593761256506" fill="#57ff2a" stroke="none" /><line stroke="#e1ed5e" stroke-width="0.3" x1="102.19456741930631" x2="102.32365962044197" y1="184.97166512339345" y2="189.96999836594603" /><path d="M 102.22038585953345 185.97133177190398 a86.0,86.0 0 0,1 -42.740103519485714,-10.115201625700543" fill="none" id="id31" stroke="none" /><text fill="#e1ed5e" style="font-size:6.75px; font-family:Arial;" text-anchor="middle"><textPath startOffset="22.20632615414155" xlink:href="#id31">July</textPath></text><path d="M 100.18074693466247 120.99922214144158 l 0.2994601875215798 34.79135627957833 a55.7926450298977,55.7926450298977 0 0,0 -0.9604142443680466,0.0 l 0.2994601875215558 -34.79135627957833" fill="#e1ff1b" stroke="none" /><path d="M 96.93821686468263 120.77559828337769 l -6.079201071382003 41.25015840804169 a62.695710263225216,62.695710263225216 0 0,0 -1.0663171053150202,-0.1665368019313398 l 6.788354040305541 -41.13940329876325" fill="#72ff27" stroke="none" /><path d="M 96.58105272829116 120.7198165907248 l -5.965481009042891 36.152552981912905 a57.64142533771402,57.64142533771402 0 0,0 -0.9775739485639963,-0.1699637615707878 l 6.586903929078937 -36.04451064182111" fill="#c2ff1e" stroke="none" /><path d="M 96.22490169976321 120.6578951692458 l -5.793658824772328 31.70375633424308 a53.22878601931696,53.22878601931696 0 0,0 -0.8999020416138529,-0.1724683680602008 l 6.338528480957876 -31.59933076783441" fill="#fff116" stroke="none" /><line stroke="#e1ed5e" stroke-width="0.3" x1="58.666819895761336" x2="56.23545636021788" y1="174.27360380694188" y2="178.64263932499728" /><path d="M 58.180547188652646 175.14741091055294 a86.0,86.0 0 0,1 -31.652253787137756,-30.449443065178592" fill="none" id="id32" stroke="none" /><text fill="#e1ed5e" style="font-size:6.75px; font-family:Arial;" text-anchor="middle"><textPath startOffset="22.20632615414155" xlink:href="#id32">August</textPath></text><path d="M 84.4343377721795 114.09645910891817 l -28.345133238459308 25.66970847656161 a59.24108407952983,59.24108407952983 0 0,0 -0.6780033474168565,-0.7617439482869609 l 28.782795435524495 -25.177990358533783" fill="#a8ff21" stroke="none" /><path d="M 82.6465618267979 111.8261652097733 l -38.70679077275999 26.37822533206528 a67.84043577503766,67.84043577503766 0 0,0 -0.6493198532554934,-0.9706450797423638 l 39.15511373142621 -25.708043338117093" fill="#30ff38" stroke="none" /><line stroke="#e1ed5e" stroke-width="0.3" x1="26.63291911575756" x2="22.317208475507996" y1="142.92168965132927" y2="145.44649492493687" /><path d="M 25.769776987707644 143.4266507060508 a86.0,86.0 0 0,1 -11.730757126820373,-40.83630448921669" fill="none" id="id33" stroke="none" /><text fill="#e1ed5e" style="font-size:6.75px; font-family:Arial;" text-anchor="middle"><textPath startOffset="21.46611528233685" xlink:href="#id33">September</textPath></text><path d="M 79.86692584326677 105.97154293290107 l -46.635585336402 13.83228402524711 a69.64370361129937,69.64370361129937 0 0,0 -0.3309978292823572,-1.1522468665675971 l 46.866775802570466 -13.027479683174917" fill="#33ff57" stroke="none" /><line stroke="#e1ed5e" stroke-width="0.3" x1="15.007084014347285" x2="10.007500721073583" y1="101.09737516637583" y2="101.16192664675087" /><path d="M 14.007167355692545 101.11028546245083 a86.0,86.0 0 0,1 10.666146001902526,-42.60595125391555" fill="none" id="id34" stroke="none" /><text fill="#e1ed5e" style="font-size:6.75px; font-family:Arial;" text-anchor="middle"><textPath startOffset="22.20632615414155" xlink:href="#id34">October</textPath></text><path d="M 79.00486145842228 99.54816195383935 l -19.721377853968747 -0.4244253411086802 a40.725944371035425,40.725944371035425 0 0,0 0.021116025042582656,-0.7007380702649576 l 19.71115013447052 0.7638335587986321" fill="#ff0000" stroke="none" /><path d="M 79.01574976396665 99.18683210126434 l -23.076348350218684 -0.8942395123661292 a44.09366834190959,44.09366834190959 0 0,0 0.03591826500375603,-0.7581778050720095 l 23.057536476981426 1.2913284240611476" fill="#ff4506" stroke="none" /><line stroke="#e1ed5e" stroke-width="0.3" x1="26.266209847984243" x2="21.928928074336255" y1="57.71137044288968" y2="55.22380399835378" /><path d="M 25.398753493254645 57.2138571539825 a86.0,86.0 0 0,1 29.58750427330803,-30.4925239686951" fill="none" id="id35" stroke="none" /><text fill="#e1ed5e" style="font-size:6.75px; font-family:Arial;" text-anchor="middle"><textPath startOffset="21.46611528233685" xlink:href="#id35">November</textPath></text><line stroke="#e1ed5e" stroke-width="0.3" x1="56.76296977257108" x2="54.21961505331056" y1="26.818313649435495" y2="22.513508569990535" /><path d="M 56.25429882871898 25.957352633546506 a86.0,86.0 0 0,1 42.26535254187918,-11.944610805530505" fill="none" id="id36" stroke="none" /><text fill="#e1ed5e" style="font-size:6.75px; font-family:Arial;" text-anchor="middle"><textPath startOffset="22.20632615414155" xlink:href="#id36">December</textPath></text></svg>