<?xml version="1.0" encoding="utf-8" ?>
<svg baseProfile="full" height="200mm" version="1.1" viewBox="0,0,200,200" width="200mm" xmlns="http://www.w3.org/2000/svg" xmlns:ev="http://www.w3.org/2001/xml-events" xmlns:xlink="http://www.w3.org/1999/xlink"><defs /><rect fill="#1a1a1a" height="200" width="200" x="0" y="0" /><text alignment-baseline="middle" fill="#e1ed5e" style="dominant-baseline: central; font-size:9.0px; font-family:Arial;" text-anchor="middle" x="100.0" y="100.0">2023</text><line stroke="#e1ed5e" stroke-width="0.3" x1="100.0" x2="100.0" y1="15.0" y2="10.0" /><path d="M 100.0 14.0 a86.0,86.0 0 0,1 42.46469731375804,11.215312516191453" fill="none" id="id37" stroke="none" /><text fill="#e1ed5e" style="font-size:6.75px; font-family:Arial;" text-anchor="middle"><textPath startOffset="22.20632615414155" xlink:href="#id37">January</textPath></text><line stroke="#e1ed5e" stroke-width="0.3" x1="143.23703022742887" x2="145.7803849466894" y1="26.81831364943548" y2="22.513508569990506" /><path d="M 143.74570117128098 25.957352633546492 a86.0,86.0 0 0,1 28.547481713284135,27.462654790039103" fill="none" id="id38" stroke="none" /><text fill="#e1ed5e" style="font-size:6.75px; font-family:Arial;" text-anchor="middle"><textPath startOffset="19.985693538727396" xlink:href="#id38">February</textPath></text><line stroke="#e1ed5e" stroke-width="0.3" x1="172.23445277983987" x2="176.4835382374775" y1="55.19839476539836" y2="52.563006222186495" /><path d="M 173.08426987136738 54.67131705675599 a86.0,86.0 0 0,1 12.851231095245387,41.99856678651699" fill="none" id="id39" stroke="none" /><text fill="#e1ed5e" style="font-size:6.75px; font-family:Arial;" text-anchor="middle"><textPath startOffset="22.20632615414155" xlink:href="#id39">March</textPath></text><line stroke="#e1ed5e" stroke-width="0.3" x1="184.98032266829074" x2="189.97916517819016" y1="98.17113171792111" y2="98.06355123074" /><path d="M 185.9800911702706 98.14961562048488 a86.0,86.0 0 0,1 -9.607161424134198,41.387399972396054" fill="none" id="id40" stroke="none" /><text fill="#e1ed5e" style="font-size:6.75px; font-family:Arial;" text-anchor="middle"><textPath startOffset="21.466115282336823" xlink:href="#id40">April</textPath></text><path d="M 119.67450827220406 107.3425965602758 l 26.758688971621147 9.98643802844606 a49.561449192503396,49.561449192503396 0 0,0 -0.30517042343935546,0.7967036781421742 l -26.582824268588286 -10.445565273421376" fill="#caff1d" stroke="none" /><line stroke="#e1ed5e" stroke-width="0.3" x1="174.80103733775053" x2="179.2010983576182" y1="140.37084112569926" y2="142.7455964860345" /><path d="M 175.68104954172406 140.8457921977663 a86.0,86.0 0 0,1 -30.038265399797805,32.042727171017184" fill="none" id="id41" stroke="none" /><text fill="#e1ed5e" style="font-size:6.75px; font-family:Arial;" text-anchor="middle"><textPath startOffset="22.206326154141568" xlink:href="#id41">May</textPath></text><path d="M 118.48025628344425 109.97397251340804 l 30.364082450222234 16.387788086287763 a55.50416063904423,55.50416063904423 0 0,0 -0.4610111899543948,0.8368692195193108 l -30.07749485081633 -16.90802782420488" fill="#80ff25" stroke="none" /><path d="M 118.12598468904814 110.60418214915192 l 30.402316943401345 17.78616236054019 a56.2228398492019,56.2228398492019 0 0,0 -0.4958831029822853,0.831128603741102 l -30.091652964720833 -18.306853058167395" fill="#78ff26" stroke="none" /><path d="M 117.75023020441432 111.22182372390056 l 23.955148437483256 15.14461784154526 a49.34093481570972,49.34093481570972 0 0,0 -0.4600340511117114,0.7139830633417976 l -23.690909522994495 -15.554722504808511" fill="#cdff1d" stroke="none" /><path d="M 116.71984013943494 112.70617746262583 l 40.025280573707796 30.417056246933054 a71.27146701393465,71.27146701393465 0 0,0 -0.7507029823976026,0.970384800529302 l -39.49577077409213 -31.101519041575607" fill="#3bff9e" stroke="none" /><path d="M 116.27256486870786 113.27417163493432 l 24.617115222136086 20.081149791202925 a52.76877301371039,52.76877301371039 0 0,0 -0.5802152747416842,0.6989066756991524 l -24.26780394750086 -20.501917724015847" fill="#a2ff22" stroke="none" /><path d="M 116.0416608686014 113.55231037782055 l 5.7328890155986745 4.843257312156678 a28.504875605693346,28.504875605693346 0 0,0 -0.31987559286832484,0.3720875804320218 l -5.648670913159571 -4.941221991750228" fill="#ff0000" stroke="none" /><path d="M 115.56566222782051 114.09645910891815 l 37.30604649472164 33.78482400757303 a71.33046232937878,71.33046232937878 0 0,0 -0.8320310936622463,0.9030054240336193 l -36.718968993063676 -34.421980686407984" fill="#3bff9f" stroke="none" /><path d="M 115.07121518719521 114.62390073753431 l 32.556319453557826 31.59004620097199 a66.36347600594175,66.36347600594175 0 0,0 -0.802553661219568,0.8129826216673613 l -32.00772516728273 -32.14576931662002" fill="#35ff61" stroke="none" /><path d="M 114.55890576462653 115.13401014063108 l 17.571062988159415 18.265153284429786 a46.34478405979388,46.34478405979388 0 0,0 -0.579672096923998,0.5481161489496446 l -17.25405505684461 -18.56490407012535" fill="#f4ff19" stroke="none" /><path d="M 112.04921762599082 117.19931262002967 l 27.88656033519406 39.805876529919644 a69.6021404224508,69.6021404224508 0 0,0 -0.9871675400161092,0.6789828354972925 l -27.19723591055507 -40.28000015478203" fill="#39ff8a" stroke="none" /><line stroke="#e1ed5e" stroke-width="0.3" x1="143.8653032363475" x2="146.44561519142675" y1="172.8068346515853" y2="177.08958963109032" /><path d="M 144.38136562736335 173.6633856474863 a86.0,86.0 0 0,1 -40.68145358897372,12.25698825130547" fill="none" id="id42" stroke="none" /><text fill="#e1ed5e" style="font-size:6.75px; font-family:Arial;" text-anchor="middle"><textPath startOffset="21.466115282336833" xlink:href="#id42">June</textPath></text><line stroke="#e1ed5e" stroke-width="0.3" x1="102.19456741930631" x2="102.32365962044197" y1="184.97166512339345" y2="189.96999836594603" /><path d="M 102.22038585953345 185.97133177190398 a86.0,86.0 0 0,1 -42.740103519485714,-10.115201625700543" fill="none" id="id43" stroke="none" /><text fill="#e1ed5e" style="font-size:6.75px; font-family:Arial;" text-anchor="middle"><textPath startOffset="22.20632615414155" xlink:href="#id43">July</textPath></text><path d="M 100.54218724476979 120.99299961872073 l 1.626561734309384 62.97899885616221 a84.0,84.0 0 0,0 -1.4457612404293283,0.02489009088336136 l -0.5422408039873879 -62.99766642432473" fill="#4dd2ff" stroke="none" /><path d="M 99.45781275523022 120.99299961872073 l -0.9978790356815241 38.63697351361825 a59.6498575011848,59.6498575011848 0 0,0 -1.0262037876517,-0.035344533368667816 l 1.6628031750078671 -38.61407218182349" fill="#50ff2b" stroke="none" /><path d="M 95.16358092515715 120.4354850818985 l -12.701652477401144 53.66872177548514 a76.15127988243884,76.15127988243884 0 0,0 -1.272983650730028,-0.3128684098110928 l 13.623589412874383 -53.44213210736002" fill="#42ffd8" stroke="none" /><path d="M 90.7491055286396 118.85261126421891 l -18.642992429735408 37.99298437223361 a63.320539082624634,63.320539082624634 0 0,0 -0.9743707032367235,-0.4885696982068852 l 19.294217040654893 -37.666446833117426" fill="#30ff39" stroke="none" /><line stroke="#e1ed5e" stroke-width="0.3" x1="58.666819895761336" x2="56.23545636021788" y1="174.27360380694188" y2="178.64263932499728" /><path d="M 58.180547188652646 175.14741091055294 a86.0,86.0 0 0,1 -31.652253787137756,-30.449443065178592" fill="none" id="id44" stroke="none" /><text fill="#e1ed5e" style="font-size:6.75px; font-family:Arial;" text-anchor="middle"><textPath startOffset="22.20632615414155" xlink:href="#id44">August</textPath></text><path d="M 83.50135304334701 112.99209946851258 l -30.59973604476818 24.096207128278856 a59.94831246637525,59.94831246637525 0 0,0 -0.6314360969925374,-0.81621627380531 l 31.009978958978785 -23.565912860360292" fill="#4dff2c" stroke="none" /><line stroke="#e1ed5e" stroke-width="0.3" x1="26.63291911575756" x2="22.317208475507996" y1="142.92168965132927" y2="145.44649492493687" /><path d="M 25.769776987707644 143.4266507060508 a86.0,86.0 0 0,1 -11.730757126820373,-40.83630448921669" fill="none" id="id45" stroke="none" /><text fill="#e1ed5e" style="font-size:6.75px; font-family:Arial;" text-anchor="middle"><textPath startOffset="21.46611528233685" xlink:href="#id45">September</textPath></text><line stroke="#e1ed5e" stroke-width="0.3" x1="15.007084014347285" x2="10.007500721073583" y1="101.09737516637583" y2="101.16192664675087" /><path d="M 14.007167355692545 101.11028546245083 a86.0,86.0 0 0,1 10.666146001902534,-42.60595125391555" fill="none" id="id46" stroke="none" /><text fill="#e1ed5e" style="font-size:6.75px; font-family:Arial;" text-anchor="middle"><textPath startOffset="22.20632615414155" xlink:href="#id46">October</textPath></text><line stroke="#e1ed5e" stroke-width="0.3" x1="26.266209847984243" x2="21.928928074336255" y1="57.711370442889674" y2="55.22380399835377" /><path d="M 25.398753493254645 57.213857153982495 a86.0,86.0 0 0,1 29.58750427330803,-30.492523968695096" fill="none" id="id47" stroke="none" /><text fill="#e1ed5e" style="font-size:6.75px; font-family:Arial;" text-anchor="middle"><textPath startOffset="21.46611528233685" xlink:href="#id47">November</textPath></text><line stroke="#e1ed5e" stroke-width="0.3" x1="56.762969772571076" x2="54.21961505331055" y1="26.818313649435495" y2="22.513508569990535" /><path d="M 56.25429882871897 25.957352633546506 a86.0,86.0 0 0,1 42.265352541879196,-11.944610805530505" fill="none" id="id48" stroke="none" /><text fill="#e1ed5e" style="font-size:6.75px; font-family:Arial;" text-anchor="middle"><textPath startOffset="22.20632615414155" xlink:href="#id48">December</textPath></text></svg>